<?xml version="1.0" encoding="UTF-8" standalone="no"?>
<!DOCTYPE svg PUBLIC "-//W3C//DTD SVG 1.1//EN"
 "http://www.w3.org/Graphics/SVG/1.1/DTD/svg11.dtd">
<!-- Generated by graphviz version 2.38.0 (20140413.2041)
 -->
<!-- Title: G Pages: 1 -->
<svg width="1136pt" height="744pt"
 viewBox="0.00 0.00 1135.54 744.00" xmlns="http://www.w3.org/2000/svg" xmlns:xlink="http://www.w3.org/1999/xlink">
<g id="graph0" class="graph" transform="scale(1 1) rotate(0) translate(4 740)">
<title>G</title>
<polygon fill="white" stroke="none" points="-4,4 -4,-740 1131.54,-740 1131.54,4 -4,4"/>
<g id="clust1" class="cluster"><title>cluster_Global</title>
<path fill="none" stroke="gray" d="M20,-98C20,-98 1107.54,-98 1107.54,-98 1113.54,-98 1119.54,-104 1119.54,-110 1119.54,-110 1119.54,-716 1119.54,-716 1119.54,-722 1113.54,-728 1107.54,-728 1107.54,-728 20,-728 20,-728 14,-728 8,-722 8,-716 8,-716 8,-110 8,-110 8,-104 14,-98 20,-98"/>
<text text-anchor="middle" x="563.769" y="-715.2" font-family="Times New Roman,serif" font-size="11.00" fill="gray">Global</text>
</g>
<g id="clust2" class="cluster"><title>cluster_\Slothsoft</title>
<path fill="none" stroke="gray" d="M28,-106C28,-106 1099.54,-106 1099.54,-106 1105.54,-106 1111.54,-112 1111.54,-118 1111.54,-118 1111.54,-688 1111.54,-688 1111.54,-694 1105.54,-700 1099.54,-700 1099.54,-700 28,-700 28,-700 22,-700 16,-694 16,-688 16,-688 16,-118 16,-118 16,-112 22,-106 28,-106"/>
<text text-anchor="middle" x="563.769" y="-687.2" font-family="Times New Roman,serif" font-size="11.00" fill="gray">Slothsoft</text>
</g>
<g id="clust3" class="cluster"><title>cluster_\Slothsoft\Minecraft</title>
<path fill="none" stroke="gray" d="M36,-114C36,-114 1091.54,-114 1091.54,-114 1097.54,-114 1103.54,-120 1103.54,-126 1103.54,-126 1103.54,-660 1103.54,-660 1103.54,-666 1097.54,-672 1091.54,-672 1091.54,-672 36,-672 36,-672 30,-672 24,-666 24,-660 24,-660 24,-126 24,-126 24,-120 30,-114 36,-114"/>
<text text-anchor="middle" x="563.769" y="-659.2" font-family="Times New Roman,serif" font-size="11.00" fill="gray">Minecraft</text>
</g>
<g id="clust4" class="cluster"><title>cluster_\Slothsoft\Minecraft\NBT</title>
<path fill="none" stroke="gray" d="M44,-302C44,-302 1063.04,-302 1063.04,-302 1069.04,-302 1075.04,-308 1075.04,-314 1075.04,-314 1075.04,-632 1075.04,-632 1075.04,-638 1069.04,-644 1063.04,-644 1063.04,-644 44,-644 44,-644 38,-644 32,-638 32,-632 32,-632 32,-314 32,-314 32,-308 38,-302 44,-302"/>
<text text-anchor="middle" x="553.519" y="-631.2" font-family="Times New Roman,serif" font-size="11.00" fill="gray">NBT</text>
</g>
<g id="clust5" class="cluster"><title>cluster_\Slothsoft\Minecraft\Asset</title>
<path fill="none" stroke="gray" d="M973.538,-168C973.538,-168 1083.54,-168 1083.54,-168 1089.54,-168 1095.54,-174 1095.54,-180 1095.54,-180 1095.54,-282 1095.54,-282 1095.54,-288 1089.54,-294 1083.54,-294 1083.54,-294 973.538,-294 973.538,-294 967.538,-294 961.538,-288 961.538,-282 961.538,-282 961.538,-180 961.538,-180 961.538,-174 967.538,-168 973.538,-168"/>
<text text-anchor="middle" x="1028.54" y="-281.2" font-family="Times New Roman,serif" font-size="11.00" fill="gray">Asset</text>
</g>
<!-- \\Slothsoft\\Minecraft\\NBT\\TAGFloat -->
<g id="node1" class="node"><title>\\Slothsoft\\Minecraft\\NBT\\TAGFloat</title>
<polygon fill="none" stroke="black" points="1064.04,-616 993.038,-616 993.038,-580 1064.04,-580 1064.04,-616"/>
<text text-anchor="middle" x="1028.54" y="-595.2" font-family="Courier,monospace" font-size="11.00">TAGFloat</text>
</g>
<!-- \\Slothsoft\\Minecraft\\NBT\\TAGNumber -->
<g id="node11" class="node"><title>\\Slothsoft\\Minecraft\\NBT\\TAGNumber</title>
<polygon fill="none" stroke="black" points="583.519,-346 506.519,-346 506.519,-310 583.519,-310 583.519,-346"/>
<text text-anchor="middle" x="545.019" y="-325.2" font-family="Courier,monospace" font-size="11.00">TAGNumber</text>
</g>
<!-- \\Slothsoft\\Minecraft\\NBT\\TAGFloat&#45;&gt;\\Slothsoft\\Minecraft\\NBT\\TAGNumber -->
<g id="edge1" class="edge"><title>\\Slothsoft\\Minecraft\\NBT\\TAGFloat&#45;&gt;\\Slothsoft\\Minecraft\\NBT\\TAGNumber</title>
<path fill="none" stroke="black" d="M992.867,-590.178C981.575,-586.112 969.827,-580.029 961.538,-571 893.52,-496.908 972.707,-417.668 894.038,-355 807.231,-285.849 666.52,-301.818 593.453,-316.511"/>
<polygon fill="none" stroke="black" points="592.678,-313.097 583.605,-318.567 594.109,-319.949 592.678,-313.097"/>
</g>
<!-- \\Slothsoft\\Minecraft\\NBT\\TAGShort -->
<g id="node2" class="node"><title>\\Slothsoft\\Minecraft\\NBT\\TAGShort</title>
<polygon fill="none" stroke="black" points="1064.04,-562 993.038,-562 993.038,-526 1064.04,-526 1064.04,-562"/>
<text text-anchor="middle" x="1028.54" y="-541.2" font-family="Courier,monospace" font-size="11.00">TAGShort</text>
</g>
<!-- \\Slothsoft\\Minecraft\\NBT\\TAGShort&#45;&gt;\\Slothsoft\\Minecraft\\NBT\\TAGNumber -->
<g id="edge2" class="edge"><title>\\Slothsoft\\Minecraft\\NBT\\TAGShort&#45;&gt;\\Slothsoft\\Minecraft\\NBT\\TAGNumber</title>
<path fill="none" stroke="black" d="M992.984,-535.613C981.834,-531.512 970.145,-525.551 961.538,-517 906.206,-462.024 957.215,-400.746 894.038,-355 804.564,-290.212 666.059,-303.999 593.712,-317.311"/>
<polygon fill="none" stroke="black" points="592.694,-313.943 583.532,-319.262 594.012,-320.817 592.694,-313.943"/>
</g>
<!-- \\Slothsoft\\Minecraft\\NBT\\TAGNode -->
<g id="node3" class="node"><title>\\Slothsoft\\Minecraft\\NBT\\TAGNode</title>
<polygon fill="none" stroke="black" points="124,-481 40,-481 40,-445 124,-445 124,-481"/>
<text text-anchor="start" x="48" y="-466.2" font-family="Courier,monospace" font-size="11.00">«abstract»</text>
<text text-anchor="start" x="58" y="-454.2" font-family="Courier,monospace" font-size="11.00">TAGNode</text>
</g>
<!-- \\Slothsoft\\Minecraft\\NBT\\TAGLong -->
<g id="node4" class="node"><title>\\Slothsoft\\Minecraft\\NBT\\TAGLong</title>
<polygon fill="none" stroke="black" points="1060.54,-508 996.538,-508 996.538,-472 1060.54,-472 1060.54,-508"/>
<text text-anchor="middle" x="1028.54" y="-487.2" font-family="Courier,monospace" font-size="11.00">TAGLong</text>
</g>
<!-- \\Slothsoft\\Minecraft\\NBT\\TAGLong&#45;&gt;\\Slothsoft\\Minecraft\\NBT\\TAGNumber -->
<g id="edge3" class="edge"><title>\\Slothsoft\\Minecraft\\NBT\\TAGLong&#45;&gt;\\Slothsoft\\Minecraft\\NBT\\TAGNumber</title>
<path fill="none" stroke="black" d="M996.449,-481.764C984.613,-477.539 971.573,-471.457 961.538,-463 918.254,-426.524 942.447,-384.335 894.038,-355 800.057,-298.049 664.604,-308.231 593.583,-319.016"/>
<polygon fill="none" stroke="black" points="592.912,-315.579 583.585,-320.604 594.01,-322.492 592.912,-315.579"/>
</g>
<!-- \\Slothsoft\\Minecraft\\NBT\\TAGString -->
<g id="node5" class="node"><title>\\Slothsoft\\Minecraft\\NBT\\TAGString</title>
<polygon fill="none" stroke="black" points="583.519,-616 506.519,-616 506.519,-580 583.519,-580 583.519,-616"/>
<text text-anchor="middle" x="545.019" y="-595.2" font-family="Courier,monospace" font-size="11.00">TAGString</text>
</g>
<!-- \\Slothsoft\\Minecraft\\NBT\\TAGString&#45;&gt;\\Slothsoft\\Minecraft\\NBT\\TAGNode -->
<g id="edge4" class="edge"><title>\\Slothsoft\\Minecraft\\NBT\\TAGString&#45;&gt;\\Slothsoft\\Minecraft\\NBT\\TAGNode</title>
<path fill="none" stroke="black" d="M506.472,-603.019C440.431,-610.169 300.578,-617.714 196,-571 156.153,-553.2 121.775,-515.143 101.721,-489.305"/>
<polygon fill="none" stroke="black" points="104.306,-486.921 95.4819,-481.057 98.7238,-491.144 104.306,-486.921"/>
</g>
<!-- \\Slothsoft\\Minecraft\\NBT\\TAGList -->
<g id="node6" class="node"><title>\\Slothsoft\\Minecraft\\NBT\\TAGList</title>
<polygon fill="none" stroke="black" points="577.019,-562 513.019,-562 513.019,-526 577.019,-526 577.019,-562"/>
<text text-anchor="middle" x="545.019" y="-541.2" font-family="Courier,monospace" font-size="11.00">TAGList</text>
</g>
<!-- \\Slothsoft\\Minecraft\\NBT\\TAGList&#45;&gt;\\Slothsoft\\Minecraft\\NBT\\TAGNode -->
<g id="edge5" class="edge"><title>\\Slothsoft\\Minecraft\\NBT\\TAGList&#45;&gt;\\Slothsoft\\Minecraft\\NBT\\TAGNode</title>
<path fill="none" stroke="black" d="M512.651,-545.367C450.869,-547.234 309.567,-547.407 196,-517 170.203,-510.093 143.148,-497.383 121.981,-486.029"/>
<polygon fill="none" stroke="black" points="123.445,-482.84 112.994,-481.101 120.079,-488.978 123.445,-482.84"/>
</g>
<!-- \\Slothsoft\\Minecraft\\NBT\\TAGByteArray -->
<g id="node7" class="node"><title>\\Slothsoft\\Minecraft\\NBT\\TAGByteArray</title>
<polygon fill="none" stroke="black" points="594.019,-508 496.019,-508 496.019,-472 594.019,-472 594.019,-508"/>
<text text-anchor="middle" x="545.019" y="-487.2" font-family="Courier,monospace" font-size="11.00">TAGByteArray</text>
</g>
<!-- \\Slothsoft\\Minecraft\\NBT\\TAGByteArray&#45;&gt;\\Slothsoft\\Minecraft\\NBT\\TAGNode -->
<g id="edge6" class="edge"><title>\\Slothsoft\\Minecraft\\NBT\\TAGByteArray&#45;&gt;\\Slothsoft\\Minecraft\\NBT\\TAGNode</title>
<path fill="none" stroke="black" d="M495.987,-487.187C408.582,-482.068 224.288,-471.275 134.435,-466.012"/>
<polygon fill="none" stroke="black" points="134.406,-462.505 124.218,-465.414 133.996,-469.493 134.406,-462.505"/>
</g>
<!-- \\Slothsoft\\Minecraft\\NBT\\TAGDouble -->
<g id="node8" class="node"><title>\\Slothsoft\\Minecraft\\NBT\\TAGDouble</title>
<polygon fill="none" stroke="black" points="1067.04,-454 990.038,-454 990.038,-418 1067.04,-418 1067.04,-454"/>
<text text-anchor="middle" x="1028.54" y="-433.2" font-family="Courier,monospace" font-size="11.00">TAGDouble</text>
</g>
<!-- \\Slothsoft\\Minecraft\\NBT\\TAGDouble&#45;&gt;\\Slothsoft\\Minecraft\\NBT\\TAGNumber -->
<g id="edge7" class="edge"><title>\\Slothsoft\\Minecraft\\NBT\\TAGDouble&#45;&gt;\\Slothsoft\\Minecraft\\NBT\\TAGNumber</title>
<path fill="none" stroke="black" d="M989.988,-422.81C980.448,-418.877 970.396,-414.208 961.538,-409 928.42,-389.527 929.772,-369.11 894.038,-355 792.976,-315.093 662.765,-317.841 593.808,-323.071"/>
<polygon fill="none" stroke="black" points="593.37,-319.595 583.685,-323.891 593.935,-326.572 593.37,-319.595"/>
</g>
<!-- \\Slothsoft\\Minecraft\\NBT\\TAGByte -->
<g id="node9" class="node"><title>\\Slothsoft\\Minecraft\\NBT\\TAGByte</title>
<polygon fill="none" stroke="black" points="1060.54,-400 996.538,-400 996.538,-364 1060.54,-364 1060.54,-400"/>
<text text-anchor="middle" x="1028.54" y="-379.2" font-family="Courier,monospace" font-size="11.00">TAGByte</text>
</g>
<!-- \\Slothsoft\\Minecraft\\NBT\\TAGByte&#45;&gt;\\Slothsoft\\Minecraft\\NBT\\TAGNumber -->
<g id="edge9" class="edge"><title>\\Slothsoft\\Minecraft\\NBT\\TAGByte&#45;&gt;\\Slothsoft\\Minecraft\\NBT\\TAGNumber</title>
<path fill="none" stroke="black" d="M996.433,-374.587C969.494,-368.437 929.402,-359.929 894.038,-355 787.355,-340.13 661.048,-332.893 593.794,-329.858"/>
<polygon fill="none" stroke="black" points="593.664,-326.349 583.52,-329.407 593.356,-333.342 593.664,-326.349"/>
</g>
<!-- \\Slothsoft\\Minecraft\\NBT\\TAGEnd -->
<g id="node10" class="node"><title>\\Slothsoft\\Minecraft\\NBT\\TAGEnd</title>
<polygon fill="none" stroke="black" points="573.519,-454 516.519,-454 516.519,-418 573.519,-418 573.519,-454"/>
<text text-anchor="middle" x="545.019" y="-433.2" font-family="Courier,monospace" font-size="11.00">TAGEnd</text>
</g>
<!-- \\Slothsoft\\Minecraft\\NBT\\TAGEnd&#45;&gt;\\Slothsoft\\Minecraft\\NBT\\TAGNode -->
<g id="edge12" class="edge"><title>\\Slothsoft\\Minecraft\\NBT\\TAGEnd&#45;&gt;\\Slothsoft\\Minecraft\\NBT\\TAGNode</title>
<path fill="none" stroke="black" d="M516.218,-437.628C440.899,-442.039 232.03,-454.272 134.459,-459.986"/>
<polygon fill="none" stroke="black" points="134.027,-456.505 124.249,-460.584 134.437,-463.493 134.027,-456.505"/>
</g>
<!-- \\Slothsoft\\Minecraft\\NBT\\TAGNumber&#45;&gt;\\Slothsoft\\Minecraft\\NBT\\TAGNode -->
<g id="edge13" class="edge"><title>\\Slothsoft\\Minecraft\\NBT\\TAGNumber&#45;&gt;\\Slothsoft\\Minecraft\\NBT\\TAGNode</title>
<path fill="none" stroke="black" d="M506.472,-322.981C440.431,-315.831 300.578,-308.286 196,-355 156.153,-372.8 121.775,-410.857 101.721,-436.695"/>
<polygon fill="none" stroke="black" points="98.7238,-434.856 95.4819,-444.943 104.306,-439.079 98.7238,-434.856"/>
</g>
<!-- \\Slothsoft\\Minecraft\\NBT\\TAGCompound -->
<g id="node12" class="node"><title>\\Slothsoft\\Minecraft\\NBT\\TAGCompound</title>
<polygon fill="none" stroke="black" points="590.519,-400 499.519,-400 499.519,-364 590.519,-364 590.519,-400"/>
<text text-anchor="middle" x="545.019" y="-379.2" font-family="Courier,monospace" font-size="11.00">TAGCompound</text>
</g>
<!-- \\Slothsoft\\Minecraft\\NBT\\TAGCompound&#45;&gt;\\Slothsoft\\Minecraft\\NBT\\TAGNode -->
<g id="edge14" class="edge"><title>\\Slothsoft\\Minecraft\\NBT\\TAGCompound&#45;&gt;\\Slothsoft\\Minecraft\\NBT\\TAGNode</title>
<path fill="none" stroke="black" d="M499.47,-380.295C432.416,-378.875 302.103,-380.591 196,-409 170.203,-415.907 143.148,-428.617 121.981,-439.971"/>
<polygon fill="none" stroke="black" points="120.079,-437.022 112.994,-444.899 123.445,-443.16 120.079,-437.022"/>
</g>
<!-- \\Slothsoft\\Minecraft\\NBT\\TAGInt -->
<g id="node13" class="node"><title>\\Slothsoft\\Minecraft\\NBT\\TAGInt</title>
<polygon fill="none" stroke="black" points="1057.04,-346 1000.04,-346 1000.04,-310 1057.04,-310 1057.04,-346"/>
<text text-anchor="middle" x="1028.54" y="-325.2" font-family="Courier,monospace" font-size="11.00">TAGInt</text>
</g>
<!-- \\Slothsoft\\Minecraft\\NBT\\TAGInt&#45;&gt;\\Slothsoft\\Minecraft\\NBT\\TAGNumber -->
<g id="edge15" class="edge"><title>\\Slothsoft\\Minecraft\\NBT\\TAGInt&#45;&gt;\\Slothsoft\\Minecraft\\NBT\\TAGNumber</title>
<path fill="none" stroke="black" d="M999.92,-328C920.98,-328 693.664,-328 593.912,-328"/>
<polygon fill="none" stroke="black" points="593.813,-324.5 583.813,-328 593.813,-331.5 593.813,-324.5"/>
</g>
<!-- \\Slothsoft\\Minecraft\\Asset\\StatusBuilder -->
<g id="node14" class="node"><title>\\Slothsoft\\Minecraft\\Asset\\StatusBuilder</title>
<polygon fill="none" stroke="black" points="1080.54,-266 976.538,-266 976.538,-230 1080.54,-230 1080.54,-266"/>
<text text-anchor="middle" x="1028.54" y="-245.2" font-family="Courier,monospace" font-size="11.00">StatusBuilder</text>
</g>
<!-- \\Slothsoft\\Farah\\Module\\Asset\\ExecutableBuilderStrategy\\ExecutableBuilderStrategyInterface -->
<g id="node17" class="node"><title>\\Slothsoft\\Farah\\Module\\Asset\\ExecutableBuilderStrategy\\ExecutableBuilderStrategyInterface</title>
<ellipse fill="none" stroke="black" cx="545.019" cy="-72" rx="349.038" ry="18"/>
<text text-anchor="middle" x="545.019" y="-68.3" font-family="Times New Roman,serif" font-size="14.00" fill="gray">\Slothsoft\Farah\Module\Asset\ExecutableBuilderStrategy\ExecutableBuilderStrategyInterface</text>
</g>
<!-- \\Slothsoft\\Minecraft\\Asset\\StatusBuilder&#45;&gt;\\Slothsoft\\Farah\\Module\\Asset\\ExecutableBuilderStrategy\\ExecutableBuilderStrategyInterface -->
<g id="edge8" class="edge"><title>\\Slothsoft\\Minecraft\\Asset\\StatusBuilder&#45;&gt;\\Slothsoft\\Farah\\Module\\Asset\\ExecutableBuilderStrategy\\ExecutableBuilderStrategyInterface</title>
<path fill="none" stroke="black" stroke-dasharray="1,5" d="M978.27,-229.992C888.82,-197.297 700.129,-128.329 604.386,-93.3339"/>
<polygon fill="none" stroke="black" points="605.453,-89.9971 594.859,-89.8514 603.049,-96.5717 605.453,-89.9971"/>
</g>
<!-- \\Slothsoft\\Minecraft\\Asset\\LogPagesBuilder -->
<g id="node15" class="node"><title>\\Slothsoft\\Minecraft\\Asset\\LogPagesBuilder</title>
<polygon fill="none" stroke="black" points="1087.54,-212 969.538,-212 969.538,-176 1087.54,-176 1087.54,-212"/>
<text text-anchor="middle" x="1028.54" y="-191.2" font-family="Courier,monospace" font-size="11.00">LogPagesBuilder</text>
</g>
<!-- \\Slothsoft\\Minecraft\\Asset\\LogPagesBuilder&#45;&gt;\\Slothsoft\\Farah\\Module\\Asset\\ExecutableBuilderStrategy\\ExecutableBuilderStrategyInterface -->
<g id="edge10" class="edge"><title>\\Slothsoft\\Minecraft\\Asset\\LogPagesBuilder&#45;&gt;\\Slothsoft\\Farah\\Module\\Asset\\ExecutableBuilderStrategy\\ExecutableBuilderStrategyInterface</title>
<path fill="none" stroke="black" stroke-dasharray="1,5" d="M969.456,-179.284C883.606,-157.533 722.58,-116.734 625.742,-92.1991"/>
<polygon fill="none" stroke="black" points="626.551,-88.7935 615.998,-89.7302 624.832,-95.5791 626.551,-88.7935"/>
</g>
<!-- \\Slothsoft\\Minecraft\\LogPagesDocument -->
<g id="node16" class="node"><title>\\Slothsoft\\Minecraft\\LogPagesDocument</title>
<polygon fill="none" stroke="black" points="1091.04,-158 966.038,-158 966.038,-122 1091.04,-122 1091.04,-158"/>
<text text-anchor="middle" x="1028.54" y="-137.2" font-family="Courier,monospace" font-size="11.00">LogPagesDocument</text>
</g>
<!-- \\Slothsoft\\Core\\IO\\Writable\\DOMWriterInterface -->
<g id="node18" class="node"><title>\\Slothsoft\\Core\\IO\\Writable\\DOMWriterInterface</title>
<ellipse fill="none" stroke="black" cx="545.019" cy="-18" rx="190.366" ry="18"/>
<text text-anchor="middle" x="545.019" y="-14.3" font-family="Times New Roman,serif" font-size="14.00" fill="gray">\Slothsoft\Core\IO\Writable\DOMWriterInterface</text>
</g>
<!-- \\Slothsoft\\Minecraft\\LogPagesDocument&#45;&gt;\\Slothsoft\\Core\\IO\\Writable\\DOMWriterInterface -->
<g id="edge11" class="edge"><title>\\Slothsoft\\Minecraft\\LogPagesDocument&#45;&gt;\\Slothsoft\\Core\\IO\\Writable\\DOMWriterInterface</title>
<path fill="none" stroke="black" stroke-dasharray="1,5" d="M1009.13,-121.808C985.004,-99.2654 940.301,-61.78 894.038,-45 845.97,-27.5652 791.782,-18.6901 740.73,-14.6262"/>
<polygon fill="none" stroke="black" points="740.795,-11.1215 730.564,-13.8764 740.28,-18.1026 740.795,-11.1215"/>
</g>
</g>
</svg>
